HIERARCHY
ROOT root
{
	OFFSET	0	13.1	24.9
	CHANNELS 6  Xposition Yposition Zposition Xrotation Yrotation Zrotation
	JOINT spine_1
	{
		OFFSET	0	9.99999	0
		CHANNELS 3  Xrotation Yrotation Zrotation
		JOINT spine_2
		{
			OFFSET	0	112	-10
			CHANNELS 3  Xrotation Yrotation Zrotation
			JOINT spine_3
			{
				OFFSET	0	206.5	19.3
				CHANNELS 3  Xrotation Yrotation Zrotation
				JOINT spine_4
				{
					OFFSET	0	110.4	14.6
					CHANNELS 3  Xrotation Yrotation Zrotation
					JOINT neck_1
					{
						OFFSET	0	71.8	-50.3
						CHANNELS 3  Xrotation Yrotation Zrotation
						JOINT neck_2
						{
							OFFSET	0	86.2	-25.8
							CHANNELS 3  Xrotation Yrotation Zrotation
							JOINT head_ee
							{
								OFFSET	0	179.8	-8.7
								CHANNELS 3  Xrotation Yrotation Zrotation
								End Site
								{
									OFFSET	1	0	0
								}
							}
						}
					}
					JOINT left_clavicle
					{
						OFFSET	-43.2	22.4	-70.8
						CHANNELS 3  Xrotation Yrotation Zrotation
						JOINT left_shoulder
						{
							OFFSET	-93.9	-5.79999	48.7
							CHANNELS 3  Xrotation Yrotation Zrotation
							JOINT left_elbow
							{
								OFFSET	-291.4	-30.8	15.2
								CHANNELS 3  Xrotation Yrotation Zrotation
								JOINT left_lowarm_twist
								{
									OFFSET	-110.7	-3.89999	13.6
									CHANNELS 3  Xrotation Yrotation Zrotation
									JOINT left_hand
									{
										OFFSET	-110.7	-3.89999	13.6
										CHANNELS 3  Xrotation Yrotation Zrotation
										JOINT left_ee
										{
											OFFSET	-80.8	-5.10001	12.1
											CHANNELS 3  Xrotation Yrotation Zrotation
											End Site
											{
												OFFSET	1	0	0
											}
										}
									}
								}
							}
						}
					}
					JOINT right_clavicle
					{
						OFFSET	43.2	22.4	-70.8
						CHANNELS 3  Xrotation Yrotation Zrotation
						JOINT right_shoulder
						{
							OFFSET	93.9	-5.79999	48.7
							CHANNELS 3  Xrotation Yrotation Zrotation
							JOINT right_elbow
							{
								OFFSET	291.4	-30.8	15.2
								CHANNELS 3  Xrotation Yrotation Zrotation
								JOINT right_lowarm_twist
								{
									OFFSET	110.7	-3.89999	13.6
									CHANNELS 3  Xrotation Yrotation Zrotation
									JOINT right_hand
									{
										OFFSET	110.7	-3.89999	13.6
										CHANNELS 3  Xrotation Yrotation Zrotation
										JOINT right_ee
										{
											OFFSET	80.8	-5.10001	12.1
											CHANNELS 3  Xrotation Yrotation Zrotation
											End Site
											{
												OFFSET	1	0	0
											}
										}
									}
								}
							}
						}
					}
				}
			}
		}
	}
	JOINT left_hip
	{
		OFFSET	-82.8	-127.5	0.300001
		CHANNELS 3  Xrotation Yrotation Zrotation
		JOINT left_knee
		{
			OFFSET	-28.2	-396.7	2.2
			CHANNELS 3  Xrotation Yrotation Zrotation
			JOINT left_ankle
			{
				OFFSET	-11.7	-411.3	35.4
				CHANNELS 3  Xrotation Yrotation Zrotation
				JOINT left_toes
				{
					OFFSET	0	-60	-88.6
					CHANNELS 3  Xrotation Yrotation Zrotation
					JOINT left_foot_ee
					{
						OFFSET	-22.5	-16.5	-42.2
						CHANNELS 3  Xrotation Yrotation Zrotation
						End Site
						{
							OFFSET	1	0	0
						}
					}
				}
			}
		}
	}
	JOINT right_hip
	{
		OFFSET	82.8	-127.5	0.300001
		CHANNELS 3  Xrotation Yrotation Zrotation
		JOINT right_knee
		{
			OFFSET	28.2	-396.7	2.2
			CHANNELS 3  Xrotation Yrotation Zrotation
			JOINT right_ankle
			{
				OFFSET	11.7	-411.3	35.4
				CHANNELS 3  Xrotation Yrotation Zrotation
				JOINT right_toes
				{
					OFFSET	0	-60	-88.6
					CHANNELS 3  Xrotation Yrotation Zrotation
					JOINT right_foot_ee
					{
						OFFSET	22.5	-16.5	-42.2
						CHANNELS 3  Xrotation Yrotation Zrotation
						End Site
						{
							OFFSET	1	0	0
						}
					}
				}
			}
		}
	}
}
MOTION
Frames: 6
Frame Time: 0.02
832.847 674.605 -1503.1 0.221775 83.1685 6.16024 0.746615 -0.607269 -3.71673 0.754222 -0.369704 -3.74778 0.78092 0.375478 -3.74721 0.761397 -0.220604 -3.75949 -17.8121 14.0452 9.1905 -18.1464 22.0461 13.9715 -0.0 0.0 -0.0 8.0237 17.8636 14.5644 9.69626 -27.0845 70.6516 2.1554 -46.8699 0.934376 -48.5168 -3.89899 4.60309 2.22366 -4.98554 12.9852 -0.0 0.0 -0.0 10.9017 -14.5014 -19.9013 -24.9329 6.27425 -50.4177 0.239914 6.77778 -0.0142069 -65.6386 5.99115 -5.24184 -4.74628 -26.4972 16.1222 0.0 0.0 0.0 -11.7228 14.7225 -10.2569 -3.4214 0.125672 0.509961 32.4103 -19.292 -4.57104 -16.9349 0.0 0.0 -0.0 0.0 -0.0 22.8046 8.6737 -10.0739 3.25849 0.147835 0.478057 -12.8527 -4.24528 -1.92856 -21.391 0.0 0.0 0.0 0.0 0.0 
807.069 678.192 -1512.41 -0.631026 82.7861 6.43088 0.790935 -0.543768 -3.39755 0.797297 -0.326601 -3.42522 0.818834 0.351937 -3.42271 0.80254 -0.192704 -3.43534 -16.5321 15.3777 7.54119 -17.0589 25.2841 12.7178 -0.0 0.0 -0.0 7.61728 19.0756 13.7967 6.69216 -27.3411 70.4164 2.05899 -45.5609 0.864772 -49.1964 -3.9779 4.64021 2.48892 -5.78677 14.4866 -0.0 0.0 -0.0 11.0138 -14.8536 -20.0443 -24.8335 6.47053 -51.5167 0.259859 7.33532 -0.0166571 -65.4487 5.9671 -5.23824 -4.75409 -25.3537 16.9715 0.0 0.0 0.0 -10.7062 14.9212 -10.6227 -8.24371 0.250619 1.23925 32.5078 -18.0105 -4.53549 -15.7673 0.0 0.0 -0.0 0.0 -0.0 21.1116 8.78322 -10.102 2.5392 0.112862 0.373249 -10.0183 -5.79951 -1.49551 -21.8466 0.0 0.0 0.0 0.0 0.0 
788.128 676.207 -1527.17 -1.9664 82.9384 7.29358 0.814808 -0.372026 -3.10717 0.820161 -0.173654 -3.12452 0.831132 0.44238 -3.09795 0.817744 -0.0521863 -3.12891 -16.2603 17.1592 7.35315 -16.9994 28.7738 13.2093 -0.0 0.0 -0.0 6.54293 19.6478 12.0811 4.44698 -27.7942 69.7524 2.06319 -45.6191 0.867766 -49.0454 -3.96034 4.63205 2.73231 -7.67245 15.3696 -0.0 0.0 -0.0 11.3205 -15.6129 -20.4596 -23.8017 6.83951 -53.0033 0.247996 7.00384 -0.0151764 -65.0396 5.91532 -5.23023 -4.31604 -22.7634 16.1025 0.0 0.0 0.0 -10.2327 13.9895 -11.4639 -11.5933 0.301088 1.75068 31.7002 -16.5201 -4.39889 -13.2867 0.0 0.0 -0.0 0.0 -0.0 19.6182 8.5559 -11.1675 2.17705 0.0957529 0.320319 -3.66783 -9.21953 -0.541113 -20.5074 0.0 0.0 0.0 0.0 0.0 
772.65 680.867 -1533.79 -2.05539 83.9211 7.0063 0.814254 -0.402403 -2.84453 0.818728 -0.220659 -2.86435 0.831088 0.345149 -2.85204 0.819754 -0.109417 -2.87075 -15.946 17.7717 5.8645 -16.8616 30.7404 12.0374 -0.0 0.0 -0.0 5.98486 19.9455 11.2115 1.57545 -28.1297 69.5282 2.04795 -45.407 0.8569 -49.5176 -4.01537 4.65744 2.95186 -8.51992 16.5345 -0.0 0.0 -0.0 11.4793 -16.0468 -20.662 -22.0 7.75687 -53.7842 0.231983 6.55568 -0.0132861 -64.668 5.86833 -5.22263 -3.92392 -20.0309 15.4425 0.0 0.0 0.0 -10.2946 13.5377 -11.8434 -12.8286 0.312142 1.93988 30.6975 -15.6588 -4.26294 -11.7525 0.0 0.0 -0.0 0.0 -0.0 18.4815 8.33805 -11.0982 0.448204 0.0187152 0.0662336 0.230093 -11.6241 0.033707 -19.9538 0.0 0.0 0.0 0.0 0.0 
760.034 682.815 -1542.71 3.26957 84.7625 1.68955 0.829293 -0.450932 -2.66022 0.833186 -0.280804 -2.6835 0.847561 0.249841 -2.68655 0.837533 -0.177427 -2.6923 -15.766 18.2993 4.38505 -16.8569 32.568 10.8794 -0.0 0.0 -0.0 5.66302 18.3198 10.7932 -1.17785 -28.0572 68.9263 1.81601 -41.9704 0.696611 -49.8816 -4.05792 4.6767 2.81134 -6.965 16.2333 -0.0 0.0 -0.0 11.6059 -17.4515 -20.6126 -20.2976 8.83863 -54.7944 0.243588 6.88056 -0.0146436 -64.7038 5.87286 -5.22337 -3.55383 -17.7024 14.536 0.0 0.0 0.0 -10.9332 13.6389 -12.9459 -13.3199 0.315404 2.0152 30.3198 -15.7046 -4.22247 -10.7881 0.0 0.0 -0.0 0.0 -0.0 17.7295 8.24891 -11.458 -0.680119 -0.0274065 -0.100773 3.35755 -14.9847 0.490521 -19.9105 0.0 0.0 0.0 0.0 0.0 
748.612 680.245 -1550.95 5.41143 85.1326 -0.427464 0.838082 -0.207635 -2.514 0.841597 -0.0472941 -2.52211 0.844549 0.447572 -2.48256 0.835952 0.0500113 -2.52206 -16.6778 18.7685 3.99281 -18.021 33.8086 11.0697 -0.0 0.0 -0.0 5.45544 17.6421 10.4928 -3.11717 -28.0985 68.5082 1.77097 -41.2562 0.666701 -50.5468 -4.136 4.71119 2.64058 -5.75029 15.5611 -0.0 0.0 -0.0 11.6244 -17.9084 -20.5525 -17.0377 9.96081 -56.2917 0.244229 6.8985 -0.0147206 -64.613 5.86139 -5.22148 -2.94482 -14.8649 12.2827 0.0 0.0 0.0 -9.39243 11.5861 -14.0134 -16.4808 0.320939 2.50008 29.6383 -15.122 -4.12963 -10.3233 0.0 0.0 -0.0 0.0 -0.0 16.2994 8.61954 -11.8263 -0.644082 -0.0259845 -0.0954258 9.1572 -16.7074 1.32077 -20.1358 0.0 0.0 0.0 0.0 0.0 
